<svg fill="none" height="31" viewBox="0 0 32 31" width="32" xmlns="http://www.w3.org/2000/svg" xmlns:xlink="http://www.w3.org/1999/xlink"><clipPath id="a"><path d="m.972656 0h30.9861v30.9861h-30.9861z"/></clipPath><g clip-path="url(#a)" fill="#fff"><path d="m16.471 7.53735c-4.3935 0-7.95049 3.56085-7.95049 7.95055 0 4.3935 3.56079 7.9505 7.95049 7.9505 4.3936 0 7.9505-3.5608 7.9505-7.9505 0-4.3936-3.5608-7.95055-7.9505-7.95055zm0 13.11095c-2.852 0-5.1605-2.3097-5.1605-5.1604 0-2.8508 2.3098-5.1605 5.1605-5.1605s5.1605 2.3097 5.1605 5.1605c.0013 2.8507-2.3085 5.1604-5.1605 5.1604z"/><path d="m22.8524.100261c-2.8508-.1329826-9.9117-.1265271-12.765 0-2.50732.117489-4.71896.723009-6.50195 2.505999-2.979831 2.97983-2.59896 6.99512-2.59896 12.88374 0 6.0268-.335683 9.9492 2.59896 12.8838 2.99145 2.9902 7.06485 2.599 12.88375 2.599 5.97 0 8.0306.0038 10.1415-.8134 2.8701-1.1142 5.0365-3.6796 5.2483-8.2875.1343-2.852.1265-9.9117 0-12.76501-.2557-5.43935-3.1748-8.738083-9.0066-9.006629zm4.5123 26.302039c-1.9534 1.9534-4.6634 1.7791-10.9329 1.7791-6.45547 0-9.0441.0956-10.93296-1.7985-2.17548-2.1651-1.7817-5.642-1.7817-10.9135 0-7.13329-.73205-12.27053 6.42706-12.6372 1.6448-.0581 2.129-.07746 6.2695-.07746l.0581.03873c6.8802 0 12.2782-.72043 12.6023 6.43737.0736 1.63326.0904 2.12386.0904 6.25786-.0013 6.3806.1201 8.9847-1.7998 10.9136z"/><path d="m24.7358 9.08147c1.0261 0 1.8579-.8318 1.8579-1.85787 0-1.02608-.8318-1.85788-1.8579-1.85788s-1.8579.8318-1.8579 1.85788c0 1.02607.8318 1.85787 1.8579 1.85787z"/></g></svg>