<svg fill="none" height="31" viewBox="0 0 32 31" width="32" xmlns="http://www.w3.org/2000/svg" xmlns:xlink="http://www.w3.org/1999/xlink"><clipPath id="a"><path d="m.944336 0h30.9861v30.9861h-30.9861z"/></clipPath><g clip-path="url(#a)" fill="#fff"><path d="m31.9226 30.9857v-.0013h.0078v-11.3641c0-5.5594-1.1969-9.84198-7.6962-9.84198-3.1245 0-5.2212 1.71458-6.0772 3.34008h-.0903v-2.8211h-6.1624v20.6871h6.4167v-10.2435c0-2.697.5113-5.305 3.8513-5.305 3.291 0 3.3401 3.0779 3.3401 5.478v10.0718z"/><path d="m1.45703 10.2991h6.42446v20.6871h-6.42446z"/><path d="m4.66525 0c-2.05412 0-3.720914 1.66679-3.720914 3.72092 0 2.05412 1.666794 3.75577 3.720914 3.75577s3.72092-1.70165 3.72092-3.75577c-.00129-2.05413-1.66809-3.72092-3.72092-3.72092z"/></g></svg>