<svg fill="none" height="32" viewBox="0 0 32 32" width="32" xmlns="http://www.w3.org/2000/svg"><circle cx="16" cy="16" fill="#fff" r="16"/><path d="m13.2642 6.26074v3.21486s-2.4711.19051-2.4314 2.4584c-.0306.5938.1646 1.1773.5462 1.6332.3817.456.9216.7508 1.5115.8252h5.9849s5.3147.0783 5.2378 6.0519c-.0649 4.9382-5.6136 5.2947-5.6136 5.2947v-3.2149s2.3535-.1919 2.4314-2.2689c.0362-.3382-.0001-.6802-.1065-1.0033s-.2805-.6198-.5105-.8703c-.2301-.2505-.5109-.4491-.8238-.5826-.3128-.1334-.6505-.1987-.9906-.1913h-5.7964s-5.09616-.4663-5.05055-5.6737c.04491-5.10839 4.68705-5.66308 5.61155-5.67326z" fill="#ff774b"/></svg>