<svg fill="none" height="23" viewBox="0 0 104 23" width="104" xmlns="http://www.w3.org/2000/svg"><path d="m.549316 8.15348h9.420834 5.72105v-5.54166z" fill="#ff9d28"/><path d="m15.6914 2.6118v19.5885l7.1598-22.2003z" fill="#68c5ed"/><path d="m15.6914 8.15332h-5.72094l5.72094 14.03018z" fill="#044d80"/><path d="m.549316 8.15356 10.893884 3.59964-1.47305-3.59964z" fill="#e54747"/><path d="m35.2525 17.0269c-.0857.0837-.2227.1841-.4111.3013s-.4453.2512-.7537.3684c-.3083.1172-.6851.2344-1.1476.3181-.4453.0837-.9592.1339-1.5416.1339-1.1134 0-2.0897-.1842-2.9119-.519-.8222-.3516-1.4902-.8371-2.0212-1.4733s-.9249-1.3729-1.1647-2.2268c-.257-.8538-.3769-1.8082-.3769-2.8294 0-1.0213.1371-1.97566.4111-2.84626.2741-.87061.668-1.62402 1.2162-2.26023.531-.63621 1.2161-1.13849 2.0212-1.49008.805-.35159 1.7642-.53576 2.8605-.53576.531 0 1.0277.05023 1.4559.13394.4282.10046.8222.20091 1.1476.33485.3255.13394.5996.26788.8051.40182.2227.13394.3768.26788.4796.35159.1199.10045.2398.2344.3255.38508.0856.15068.137.3181.137.48553 0 .26788-.1028.53575-.3083.80363-.2056.26788-.4283.51902-.6852.75341-.1713-.16742-.3597-.33485-.5652-.50227-.2056-.16743-.4454-.3181-.7023-.45204-.257-.13394-.5481-.2344-.8736-.31811-.3254-.08371-.6851-.13394-1.0962-.13394-.7023 0-1.3018.13394-1.7814.41856s-.8565.63621-1.1477 1.08826c-.2911.45204-.4967.95432-.6166 1.52356s-.1884 1.15526-.1884 1.75796c0 .6362.0685 1.2389.1884 1.8249s.3426 1.0883.6509 1.5403c.3083.4521.7023.8037 1.199 1.0715.4968.2679 1.0963.4019 1.8328.4019.394 0 .7365-.0503 1.062-.134.3254-.1004.6166-.2176.8564-.3516.257-.1339.4625-.2846.6509-.4185.1884-.1507.3426-.2847.4625-.3851.0856.1004.1713.2176.2912.3516.1199.1339.2227.2846.3083.4185.1028.1507.1713.3014.2569.4521.0686.1507.1028.2846.1028.4018 0 .1842-.0342.3181-.1028.4521-.0685.1172-.1884.2511-.3254.4018zm10.6884-1.5571c0 1.0715.1541 1.8584.4796 2.344-.257.1004-.4796.1674-.7023.2009s-.4454.0669-.6852.0669c-.4967 0-.8735-.1004-1.1305-.2846-.2569-.1841-.4282-.4688-.4967-.8204-.3083.3182-.7023.586-1.2161.8037-.4968.2176-1.1134.3181-1.8328.3181-.3769 0-.7537-.0502-1.1305-.1507-.3769-.1004-.7194-.2679-1.0278-.5023-.3083-.2344-.5481-.5357-.7536-.9208-.1884-.3851-.2912-.8539-.2912-1.4064 0-.6864.1713-1.2556.5139-1.691.3425-.4353.7707-.7701 1.2846-1.0212.5139-.2512 1.0791-.4186 1.6615-.5191.5995-.1004 1.1476-.1506 1.6444-.1841.1713-.0168.3254-.0168.4967-.0168h.4453v-.3683c0-.519-.137-.8873-.4282-1.1217-.2912-.21769-.7536-.33489-1.3874-.33489-.5995 0-1.1305.10045-1.593.28459-.4625.1842-.9249.4018-1.3703.653-.1884-.2344-.3597-.4855-.4625-.7702-.1199-.28458-.1712-.4855-.1712-.61944 0-.18416.1027-.36833.3254-.55249.2227-.18417.5139-.33486.8907-.48554s.805-.25113 1.3018-.35159c.4796-.08371.9935-.13394 1.5416-.13394.7536 0 1.3874.06698 1.9013.21766.5138.15068.9421.38507 1.2675.68643.3254.31811.5653.70318.7023 1.17197.137.46884.2055 1.02134.2055 1.64074zm-2.6721-2.3607h-.2912c-.1028 0-.1884 0-.2912.0168-.3426.0335-.6852.067-1.0277.1172-.3426.0502-.6509.1507-.9079.2846-.2569.1339-.4796.3181-.6509.5358-.1712.2176-.2569.5022-.2569.8371 0 .3851.1028.7032.3255.971.2226.2679.5995.4019 1.1305.4019.2569 0 .5138-.0335.7536-.1005s.4454-.1507.6338-.2679.3254-.2344.4282-.3516c.1028-.1339.1542-.2511.1542-.3516zm7.8621-4.01814c.2227-.25114.5652-.51902 1.0448-.7869s1.062-.40181 1.7814-.40181c.5139 0 1.0106.08371 1.4731.25113.4625.16743.8736.45205 1.2333.82038.3597.38508.6509.88735.8564 1.50684.2227.6194.3255 1.3896.3255 2.3104 0 1.0548-.1199 1.9422-.3769 2.6286-.2569.6864-.5652 1.2389-.9592 1.624-.3939.4018-.8393.6865-1.3189.8539s-.9763.2511-1.4559.2511c-.394 0-.7537-.0502-1.0449-.1339s-.5481-.1842-.7537-.3014c-.2055-.1004-.3597-.2176-.4796-.3181-.1027-.1004-.1884-.1842-.2055-.2176v5.0227h-2.8434v-13.99669c.0685-.01675.1542-.03348.2569-.03348.0857-.01675.1885-.01675.2912-.03349.1199 0 .2398-.01674.394-.01674.4625 0 .8564.06697 1.1819.21765.3083.15068.5138.40182.5995.75341zm3.7683 3.76704c0-.4018-.0342-.7869-.1028-1.1385-.0685-.3516-.1884-.6529-.3425-.9208-.1542-.2512-.3769-.4521-.6509-.6027-.2741-.1507-.5995-.21769-.9935-.21769-.5824 0-.9935.11719-1.2161.31809-.2227.2177-.3426.4521-.3426.7199v4.3363c.1028.1172.3083.2344.5995.3851s.6166.2177.9935.2177c.7022 0 1.2161-.2679 1.5587-.8204.3254-.5358.4967-1.2892.4967-2.277zm5.1387 3.5159c-.1028-.2679-.1542-.5525-.1885-.8538-.0342-.3014-.0342-.6028-.0342-.9041v-9.45951c.1027-.01675.2055-.03349.3083-.03349.1028-.01674.2055-.01674.3083-.03348.1028 0 .2227-.01674.3255-.01674.2226 0 .4453.01674.668.06696.2227.03349.4282.1172.5995.25114.1884.1172.3254.28462.4453.50227.1028.21766.1713.48553.1713.82038v1.4566h2.9291v2.05927h-2.9119v4.3531c0 .9543.3939 1.4231 1.1818 1.4231.1885 0 .3769-.0335.5482-.0837.1713-.067.3254-.134.4624-.2009.1371-.067.257-.1507.3597-.2344.1028-.0837.1713-.1507.2227-.1842.2056.3014.3769.5525.4796.7702.1028.2176.1713.4185.1713.6194 0 .1842-.0685.3516-.2227.519-.1541.1675-.3597.3349-.6166.4688-.2569.1507-.5824.2679-.9592.3516s-.7879.134-1.2333.134c-.8564 0-1.5416-.1675-2.0212-.4856-.4453-.3516-.7879-.7701-.9934-1.3059zm12.7266-.2679c.3426 0 .6509-.0334.925-.1172.2569-.0669.4967-.1674.7194-.2678.2056-.1005.394-.2344.5481-.3516.1542-.134.2912-.2512.4111-.3516.1713.2009.3426.4688.531.7869s.2741.586.2741.7869c0 .3013-.1713.5692-.5139.8203-.2912.2177-.7023.4019-1.2504.5693-.531.1507-1.1647.2344-1.8842.2344-.6508 0-1.3018-.0837-1.9355-.2512-.6338-.1674-1.199-.452-1.6958-.8538-.4967-.4018-.8907-.9543-1.199-1.6408-.3083-.6864-.4625-1.557-.4625-2.595 0-.8539.1371-1.5906.4111-2.2101.2741-.6194.6338-1.13844 1.0791-1.54026.4454-.40182.9593-.70318 1.5416-.90409.5653-.18417 1.1477-.28462 1.7472-.28462.7708 0 1.4388.1172 1.9869.35159s.9764.5525 1.3189.95432c.3426.40182.5824.85386.7366 1.37286.1541.519.2226 1.0548.2226 1.624v.2847c0 .1172.0001.2176-.0171.3516 0 .1171-.0171.2343-.0171.3515s-.0171.2009-.0343.2679h-6.1492c.0514.7534.2912 1.3729.7194 1.8752.4111.4855 1.0791.7366 1.9869.7366zm.9593-4.1353c0-.653-.1371-1.1888-.394-1.5906-.2569-.40179-.7194-.61944-1.3874-.61944-.5824 0-1.0278.20091-1.3703.58594-.3426.3851-.5139.9209-.5139 1.6241zm7.5024-2.82952c.0856-.11719.1884-.25113.3254-.40181s.3083-.28462.5139-.40182c.2055-.1172.4282-.21765.668-.30137.2398-.08371.4967-.11719.7879-.11719.1713 0 .3426.01674.531.03348.1884.03349.3597.08372.5139.15069.1541.06697.2912.16742.3939.30136.1028.13394.1542.28462.1542.46878 0 .30137-.0685.63622-.2227 1.02129-.1541.38511-.3083.71991-.4624.98781-.2398-.1842-.4797-.3348-.7023-.4353-.2398-.1005-.5139-.1507-.8393-.1507-.4283 0-.788.1172-1.0792.3683-.2911.2512-.4453.5358-.4453.8874v6.5965h-2.8434v-9.96173c.0685-.01674.1542-.03349.257-.03349.0856-.01674.1884-.01674.2911-.03348.1028 0 .2398-.01674.394-.01674.4454 0 .8393.08371 1.1648.25113.3083.18417.5138.4353.5995.78689zm8.0676 0c.0857-.11719.1884-.25113.3255-.40181.137-.15068.3083-.28462.5138-.40182.2056-.1172.4283-.21765.6681-.30137.2398-.08371.4967-.11719.7879-.11719.1713 0 .3426.01674.531.03348.1884.03349.3597.08372.5138.15069.1542.06697.2912.16742.394.30136s.1542.28462.1542.46878c0 .30137-.0685.63622-.2227 1.02129-.1542.38511-.3083.71991-.4625.98781-.2398-.1842-.4796-.3348-.7023-.4353-.2398-.1005-.5138-.1507-.8393-.1507-.4282 0-.7879.1172-1.0791.3683-.2912.2512-.4453.5358-.4453.8874v6.5965h-2.8434v-9.96173c.0685-.01674.1541-.03349.2569-.03349.0857-.01674.1884-.01674.2912-.03348.1028 0 .2398-.01674.394-.01674.4453 0 .8393.08371 1.1647.25113.3083.18417.5139.4353.5995.78689zm13.5492 6.32862c0 1.0715.154 1.8584.479 2.344-.257.1004-.479.1674-.702.2009s-.445.0669-.685.0669c-.497 0-.874-.1004-1.131-.2846-.257-.1841-.428-.4688-.496-.8204-.3087.3182-.7026.586-1.2165.8037-.4967.2176-1.1134.3181-1.8328.3181-.3768 0-.7536-.0502-1.1305-.1507-.3768-.1004-.7194-.2679-1.0277-.5023s-.5481-.5357-.7537-.9208c-.1884-.3851-.2912-.8539-.2912-1.4064 0-.6864.1713-1.2556.5139-1.691.3426-.4353.7708-.7701 1.2847-1.0212.5138-.2512 1.0791-.4186 1.6614-.5191.5996-.1004 1.1477-.1506 1.6444-.1841.1713-.0168.3255-.0168.4967-.0168h.4453v-.3683c0-.519-.1369-.8873-.4281-1.1217-.2912-.21769-.7537-.33489-1.3875-.33489-.5995 0-1.1305.10045-1.5929.28459-.4625.1842-.925.4018-1.3703.653-.1884-.2344-.3597-.4855-.4625-.7702-.1199-.28458-.1713-.4855-.1713-.61944 0-.18416.1028-.36833.3254-.55249.2227-.18417.5139-.33486.8907-.48554.3769-.15068.8051-.25113 1.3018-.35159.4796-.08371.9935-.13394 1.5416-.13394.7537 0 1.3871.06698 1.9011.21766s.942.38507 1.268.68643c.325.31811.565.70318.702 1.17197.137.46884.206 1.02134.206 1.64074zm-2.672-2.3607h-.2916c-.1028 0-.1884 0-.2912.0168-.3425.0335-.6851.067-1.0277.1172s-.6509.1507-.9078.2846c-.257.1339-.4796.3181-.6509.5358-.1713.2176-.2569.5022-.2569.8371 0 .3851.1027.7032.3254.971.2227.2679.5995.4019 1.1305.4019.2569 0 .5139-.0335.7537-.1005s.4453-.1507.6337-.2679.3255-.2344.4278-.3516c.103-.1339.155-.2511.155-.3516z" fill="#044d80"/></svg>