<svg fill="none" height="22" viewBox="0 0 96 22" width="96" xmlns="http://www.w3.org/2000/svg"><path d="m25.7611 5.26562h9.5688v1.75038h-3.7676v9.8672h-2.0651v-9.8672h-3.7518zm9.1589 3.20645h1.7656v1.62643h.0315c.0631-.23232.1734-.44918.3311-.66604.1576-.21686.3468-.41824.5832-.58863.2207-.18588.473-.32529.7567-.43372.268-.10843.5517-.17039.8355-.17039.2207 0 .3783.01549.4572.01549.0788.01549.1734.03098.2522.03098v1.78141c-.1261-.031-.268-.0465-.4099-.062s-.268-.03099-.4099-.03099c-.3152 0-.6147.06199-.8985.18589-.2837.1239-.5202.3098-.7409.5421-.2049.2479-.3783.5422-.5045.8985-.1261.3562-.1891.7745-.1891 1.2392v3.9964h-1.8917zm13.6832 8.41113h-1.8602v-1.1773h-.0315c-.2365.4338-.5833.7591-1.0404 1.0224-.4572.2633-.9301.3872-1.403.3872-1.1193 0-1.939-.2633-2.4434-.8209-.5045-.5422-.7567-1.3787-.7567-2.4784v-5.34413h1.8917v5.15823c0 .7435.1418 1.2702.4414 1.5645.2837.3098.6936.4647 1.2138.4647.3941 0 .7251-.062.9931-.1859s.4887-.2788.6464-.4802c.1734-.2014.2837-.4492.3625-.728.0788-.2789.1104-.5887.1104-.914v-4.87933h1.8917v8.41113zm3.2158-2.6953c.0631.5422.268.9139.6306 1.1463.3626.2168.804.3253 1.3084.3253.1734 0 .3784-.0155.5991-.0465s.4414-.0774.6305-.1549c.205-.0774.3626-.1859.4887-.3408s.1892-.3408.1734-.5731c-.0158-.2324-.0946-.4337-.268-.5886s-.3783-.2634-.6305-.3718c-.2523-.0929-.5518-.1704-.8828-.2324-.3311-.0619-.6621-.1394-1.0089-.2168-.3468-.0775-.6936-.1704-1.0247-.2788-.331-.1085-.6148-.2479-.8828-.4492-.2522-.1859-.4729-.4183-.6148-.7126-.1576-.2943-.2364-.6351-.2364-1.0688 0-.4647.1103-.83647.3468-1.14627.2207-.3098.5202-.55764.867-.74353.3468-.18588.7409-.32529 1.1665-.40274.4257-.07745.8355-.10843 1.2139-.10843.4414 0 .867.04647 1.2611.13941s.7724.23235 1.0877.44922c.331.20137.599.48019.804.80548.2207.32529.3468.72806.4098 1.19276h-1.9705c-.0945-.4492-.2995-.7435-.6148-.89845-.331-.1549-.6936-.23235-1.1192-.23235-.1261 0-.2995.01549-.4729.03098-.1892.03098-.3468.06196-.5202.12392-.1577.06196-.2996.1549-.4099.2633-.1104.1085-.1734.2634-.1734.4492 0 .2324.0788.4028.2365.5422.1576.1394.3625.2478.6305.3563.2522.0929.5518.1704.8828.2323.331.062.6779.1394 1.0247.2169.3468.0774.6778.1704 1.0089.2788.331.1084.6305.2478.8827.4492.2523.1859.473.4183.6306.6971s.2365.6351.2365 1.0378c0 .4957-.1104.9139-.3468 1.2702-.2365.3408-.536.6351-.8986.852-.3626.2168-.7882.3717-1.2296.4801-.4571.093-.8985.1549-1.3399.1549-.536 0-1.0405-.0619-1.4976-.1858-.4572-.124-.867-.3098-1.1981-.5422-.331-.2478-.599-.5421-.7882-.9139-.1892-.3563-.2995-.79-.3153-1.3012h1.9075v.0155zm6.2268-5.71583h1.4346v-2.54037h1.8916v2.52488h1.7026v1.37862h-1.7026v4.4921c0 .2014.0158.3563.0316.5112.0157.1394.063.2633.1103.3563.0631.0929.1577.1704.268.2168.1261.0465.2838.0775.5045.0775.1261 0 .2679 0 .3941-.0155.1261-.0155.2679-.031.3941-.062v1.4406c-.205.031-.4099.0465-.6148.062-.205.031-.3941.031-.6148.031-.5045 0-.8986-.0465-1.1981-.1395-.2995-.0929-.536-.2323-.7094-.4027-.1734-.1859-.2837-.4027-.3468-.6661-.063-.2633-.0946-.5886-.1103-.9294v-4.95681h-1.4346v-1.4096zm6.3529 0h1.7814v1.14627h.0315c.268-.49569.6306-.83647 1.1035-1.05333s.9774-.32529 1.5449-.32529c.6778 0 1.2611.10843 1.7655.35627.5045.23236.9143.54216 1.2454.96039.331.40274.5833.88292.7409 1.42512.1576.5421.2522 1.1307.2522 1.7349 0 .5731-.0788 1.1152-.2207 1.6419-.1576.5267-.3783 1.0069-.6778 1.4096s-.6779.728-1.1508.9759c-.4729.2478-1.0089.3717-1.6395.3717-.268 0-.5517-.0309-.8197-.0774s-.536-.1239-.7882-.2324c-.2522-.1084-.4887-.2478-.6936-.4182-.2207-.1704-.3941-.3718-.536-.5886h-.0315v4.1978h-1.8917v-11.52463zm6.6052 4.21333c0-.3718-.0473-.7435-.1577-1.0998-.0946-.3563-.2522-.6661-.4571-.9449-.205-.2788-.4572-.4957-.7409-.66609-.2996-.17039-.6464-.24784-1.0247-.24784-.7882 0-1.3872.26333-1.7971.80553-.3941.5421-.599 1.2701-.599 2.1686 0 .4337.0473.8209.1576 1.1772.1104.3563.2522.6661.4729.9294.205.2633.4572.4647.7567.6196s.6306.2324 1.0247.2324c.4414 0 .7882-.093 1.0877-.2634.2995-.1703.536-.4027.7409-.666.1892-.2789.331-.5887.4099-.9449.0788-.3718.1261-.7281.1261-1.0998zm3.3262-7.41978h1.8917v1.75038h-1.8917zm0 3.20645h1.8917v8.41113h-1.8917zm3.5784-3.20645h1.8917v11.61758h-1.8917zm7.6613 11.84988c-.6778 0-1.2926-.1084-1.8286-.3407-.536-.2324-.9774-.5267-1.3557-.914-.3626-.3872-.6463-.8674-.8355-1.4096-.1892-.5421-.2995-1.1462-.2995-1.7813s.0946-1.2237.2995-1.7659c.1892-.5421.4729-1.00684.8355-1.40958.3626-.38725.8197-.69705 1.3557-.91392.536-.21686 1.1508-.34078 1.8286-.34078.6779 0 1.2927.10843 1.8286.34078.536.21687.9774.52667 1.3557.91392.3626.38725.6464.86748.8355 1.40958.1892.5422.2996 1.1308.2996 1.7659 0 .6506-.0946 1.2392-.2996 1.7813-.2049.5422-.4729 1.0069-.8355 1.4096-.3625.3873-.8197.6971-1.3557.914-.5359.2168-1.135.3407-1.8286.3407zm0-1.4715c.4099 0 .7882-.093 1.0877-.2633.3153-.1704.5518-.4028.7567-.6816s.3468-.6041.4414-.9449c.0946-.3563.1419-.7126.1419-1.0843 0-.3563-.0473-.7126-.1419-1.0688-.0946-.3563-.2365-.6661-.4414-.9449s-.4571-.4957-.7567-.6661c-.3152-.17039-.6778-.26333-1.0877-.26333-.4098 0-.7882.09294-1.0877.26333-.3153.1704-.5517.4027-.7567.6661-.2049.2788-.3468.5886-.4414.9449-.0946.3562-.1418.7125-.1418 1.0688 0 .3717.0472.728.1418 1.0843s.2365.6661.4414.9449c.205.2788.4572.5112.7567.6816.3153.1858.6779.2633 1.0877.2633zm4.8869-7.17193h1.4345v-2.54037h1.8917v2.52488h1.7025v1.37862h-1.7025v4.4921c0 .2014.0157.3563.0315.5112.0158.1394.063.2633.1103.3563.0631.0929.1577.1704.268.2168.1261.0465.2838.0775.5045.0775.1261 0 .268 0 .3941-.0155s.268-.031.3941-.062v1.4406c-.2049.031-.4099.0465-.6148.062-.2049.031-.3941.031-.6148.031-.5045 0-.8986-.0465-1.1981-.1395-.2995-.0929-.536-.2323-.7094-.4027-.1734-.1859-.2837-.4027-.3468-.6661-.063-.2633-.0945-.5886-.1103-.9294v-4.95681h-1.4345v-1.4096z" fill="#000"/><path d="m23.5545 8.08581h-8.6544l-2.6642-8.08581-2.67985 8.08581-8.654439-.01549 6.999219 5.00328-2.67988 8.0858 6.99925-5.0033 6.9992 5.0033-2.6641-8.0858z" fill="#00b67a"/><path d="m17.1537 14.9015-.599-1.8278-4.3193 3.0825z" fill="#005128"/></svg>