<svg fill="none" height="27" viewBox="0 0 119 27" width="119" xmlns="http://www.w3.org/2000/svg" xmlns:xlink="http://www.w3.org/1999/xlink"><filter id="a" color-interpolation-filters="sRGB" filterUnits="userSpaceOnUse" height="26.9871" width="28.3096" x=".329834" y="0"><feFlood flood-opacity="0" result="BackgroundImageFix"/><feColorMatrix in="SourceAlpha" result="hardAlpha" type="matrix" values="0 0 0 0 0 0 0 0 0 0 0 0 0 0 0 0 0 0 127 0"/><feOffset/><feGaussianBlur stdDeviation="2.5"/><feComposite in2="hardAlpha" operator="out"/><feColorMatrix type="matrix" values="0 0 0 0 0.94902 0 0 0 0 0.815686 0 0 0 0 0.388235 0 0 0 0.36 0"/><feBlend in2="BackgroundImageFix" mode="normal" result="effect1_dropShadow_4_143"/><feBlend in="SourceGraphic" in2="effect1_dropShadow_4_143" mode="normal" result="shape"/></filter><filter id="b" color-interpolation-filters="sRGB" filterUnits="userSpaceOnUse" height="26.9871" width="28.3096" x="22.7085" y="0"><feFlood flood-opacity="0" result="BackgroundImageFix"/><feColorMatrix in="SourceAlpha" result="hardAlpha" type="matrix" values="0 0 0 0 0 0 0 0 0 0 0 0 0 0 0 0 0 0 127 0"/><feOffset/><feGaussianBlur stdDeviation="2.5"/><feComposite in2="hardAlpha" operator="out"/><feColorMatrix type="matrix" values="0 0 0 0 0.94902 0 0 0 0 0.815686 0 0 0 0 0.388235 0 0 0 0.36 0"/><feBlend in2="BackgroundImageFix" mode="normal" result="effect1_dropShadow_4_143"/><feBlend in="SourceGraphic" in2="effect1_dropShadow_4_143" mode="normal" result="shape"/></filter><filter id="c" color-interpolation-filters="sRGB" filterUnits="userSpaceOnUse" height="26.9871" width="28.3096" x="45.0867" y="0"><feFlood flood-opacity="0" result="BackgroundImageFix"/><feColorMatrix in="SourceAlpha" result="hardAlpha" type="matrix" values="0 0 0 0 0 0 0 0 0 0 0 0 0 0 0 0 0 0 127 0"/><feOffset/><feGaussianBlur stdDeviation="2.5"/><feComposite in2="hardAlpha" operator="out"/><feColorMatrix type="matrix" values="0 0 0 0 0.94902 0 0 0 0 0.815686 0 0 0 0 0.388235 0 0 0 0.36 0"/><feBlend in2="BackgroundImageFix" mode="normal" result="effect1_dropShadow_4_143"/><feBlend in="SourceGraphic" in2="effect1_dropShadow_4_143" mode="normal" result="shape"/></filter><filter id="d" color-interpolation-filters="sRGB" filterUnits="userSpaceOnUse" height="26.9871" width="28.3096" x="67.4651" y="0"><feFlood flood-opacity="0" result="BackgroundImageFix"/><feColorMatrix in="SourceAlpha" result="hardAlpha" type="matrix" values="0 0 0 0 0 0 0 0 0 0 0 0 0 0 0 0 0 0 127 0"/><feOffset/><feGaussianBlur stdDeviation="2.5"/><feComposite in2="hardAlpha" operator="out"/><feColorMatrix type="matrix" values="0 0 0 0 0.94902 0 0 0 0 0.815686 0 0 0 0 0.388235 0 0 0 0.36 0"/><feBlend in2="BackgroundImageFix" mode="normal" result="effect1_dropShadow_4_143"/><feBlend in="SourceGraphic" in2="effect1_dropShadow_4_143" mode="normal" result="shape"/></filter><filter id="e" color-interpolation-filters="sRGB" filterUnits="userSpaceOnUse" height="26.9871" width="28.3096" x="89.8425" y="0"><feFlood flood-opacity="0" result="BackgroundImageFix"/><feColorMatrix in="SourceAlpha" result="hardAlpha" type="matrix" values="0 0 0 0 0 0 0 0 0 0 0 0 0 0 0 0 0 0 127 0"/><feOffset/><feGaussianBlur stdDeviation="2.5"/><feComposite in2="hardAlpha" operator="out"/><feColorMatrix type="matrix" values="0 0 0 0 0.94902 0 0 0 0 0.815686 0 0 0 0 0.388235 0 0 0 0.36 0"/><feBlend in2="BackgroundImageFix" mode="normal" result="effect1_dropShadow_4_143"/><feBlend in="SourceGraphic" in2="effect1_dropShadow_4_143" mode="normal" result="shape"/></filter><linearGradient id="f"><stop offset="0" stop-color="#f2d063"/><stop offset="1" stop-color="#f8ae2e"/></linearGradient><linearGradient id="g" gradientUnits="userSpaceOnUse" x1="9.39848" x2="18.7123" xlink:href="#f" y1="7.05555" y2="21.1523"/><linearGradient id="h" gradientUnits="userSpaceOnUse" x1="31.7771" x2="41.091" xlink:href="#f" y1="7.05555" y2="21.1523"/><linearGradient id="i" gradientUnits="userSpaceOnUse" x1="54.1553" x2="63.4692" xlink:href="#f" y1="7.05555" y2="21.1523"/><linearGradient id="j" gradientUnits="userSpaceOnUse" x1="76.5337" x2="85.8476" xlink:href="#f" y1="7.05555" y2="21.1523"/><linearGradient id="k" gradientUnits="userSpaceOnUse" x1="98.9112" x2="108.225" xlink:href="#f" y1="7.05555" y2="21.1523"/><g filter="url(#a)"><path d="m23.6232 11.4651c-.0387-.1155-.1413-.1998-.2648-.2173l-5.9287-.8389-2.6514-5.23084c-.055-.10913-.1691-.17806-.2936-.17806-.1246 0-.2389.06893-.2937.17806l-2.6517 5.23114-5.92867.8389c-.12356.0176-.22581.1015-.26481.2173-.03834.1152-.00655.2422.08292.3268l4.29036 4.0718-1.01303 5.7496c-.02097.1197.0295.2406.13011.3121.10127.0721.23532.0814.34511.0243l5.30341-2.7143 5.3027 2.7143c.0478.0245.1006.0367.1527.0367.0679 0 .1354-.0205.1927-.061.101-.0715.1514-.1924.1301-.3121l-1.0127-5.7493 4.2904-4.0721c.0891-.0852.1213-.2119.0826-.3271z" fill="url(#g)"/></g><g filter="url(#b)"><path d="m46.0019 11.4651c-.0387-.1155-.1413-.1998-.2649-.2173l-5.9287-.8389-2.6513-5.23084c-.0551-.10913-.1691-.17806-.2937-.17806-.1245 0-.2389.06893-.2936.17806l-2.6517 5.23114-5.9287.8389c-.1236.0176-.2258.1015-.2648.2173-.0384.1152-.0066.2422.0829.3268l4.2904 4.0718-1.0131 5.7496c-.0209.1197.0295.2406.1301.3121.1013.0721.2354.0814.3451.0243l5.3034-2.7143 5.3028 2.7143c.0478.0245.1006.0367.1527.0367.0678 0 .1353-.0205.1927-.061.1009-.0715.1514-.1924.1301-.3121l-1.0127-5.7493 4.2904-4.0721c.0891-.0852.1212-.2119.0826-.3271z" fill="url(#h)"/></g><g filter="url(#c)"><path d="m68.38 11.4651c-.0386-.1155-.1412-.1998-.2648-.2173l-5.9287-.8389-2.6513-5.23084c-.0551-.10913-.1692-.17806-.2937-.17806s-.2389.06893-.2936.17806l-2.6517 5.23114-5.9287.8389c-.1236.0176-.2258.1015-.2648.2173-.0384.1152-.0066.2422.0829.3268l4.2903 4.0718-1.013 5.7496c-.021.1197.0295.2406.1301.3121.1013.0721.2353.0814.3451.0243l5.3034-2.7143 5.3027 2.7143c.0479.0245.1006.0367.1528.0367.0678 0 .1353-.0205.1927-.061.1009-.0715.1514-.1924.1301-.3121l-1.0127-5.7493 4.2903-4.0721c.0892-.0852.1213-.2119.0826-.3271z" fill="url(#i)"/></g><g filter="url(#d)"><path d="m90.7584 11.4651c-.0386-.1155-.1412-.1998-.2648-.2173l-5.9287-.8389-2.6513-5.23084c-.0551-.10913-.1691-.17806-.2937-.17806-.1245 0-.2389.06893-.2936.17806l-2.6517 5.23114-5.9287.8389c-.1236.0176-.2258.1015-.2648.2173-.0384.1152-.0066.2422.0829.3268l4.2904 4.0718-1.0131 5.7496c-.0209.1197.0295.2406.1301.3121.1013.0721.2353.0814.3451.0243l5.3034-2.7143 5.3028 2.7143c.0478.0245.1006.0367.1527.0367.0678 0 .1353-.0205.1927-.061.1009-.0715.1514-.1924.1301-.3121l-1.0127-5.7493 4.2904-4.0721c.0891-.0852.1212-.2119.0825-.3271z" fill="url(#j)"/></g><g filter="url(#e)"><path d="m113.136 11.4651c-.039-.1155-.141-.1998-.265-.2173l-5.929-.8389-2.651-5.23084c-.055-.10913-.169-.17806-.294-.17806-.124 0-.239.06893-.293.17806l-2.652 5.23114-5.9287.8389c-.1235.0176-.2258.1015-.2648.2173-.0383.1152-.0065.2422.0829.3268l4.2904 4.0718-1.013 5.7496c-.021.1197.0295.2406.1301.3121.1012.0721.2353.0814.3451.0243l5.303-2.7143 5.303 2.7143c.048.0245.101.0367.153.0367.068 0 .135-.0205.193-.061.1-.0715.151-.1924.13-.3121l-1.013-5.7493 4.29-4.0721c.089-.0852.122-.2119.083-.3271z" fill="url(#k)"/></g></svg>